<svg width="350" height="641" viewBox="0 0 350 641" fill="none" xmlns="http://www.w3.org/2000/svg">
<path d="M191.69 131.712C188.852 143.29 181.137 154.746 170.751 164.398C160.335 174.078 147.331 181.851 134.145 186.054C120.06 186.025 108.393 183.317 100.25 176.748C92.128 170.195 87.2408 159.572 87.2408 143.085C87.2408 121.166 91.3905 103.257 98.9537 90.8822C106.479 78.5691 117.368 71.7313 131.106 71.7313C144.926 71.7313 158.357 78.6941 169.241 89.7907C180.044 100.805 188.233 115.791 191.69 131.712Z" fill="#E2C1A0" stroke="#DABFA5" stroke-width="3"/>
<path d="M170.615 244.323V244.21L170.598 244.098C167.408 223.091 175.812 199.834 189.261 181.768C202.748 163.65 220.954 151.208 236.959 151.208H237.127L237.29 151.171C245.527 149.308 255.842 153.076 266.926 160.989C277.939 168.852 289.396 180.586 299.786 194.012C310.17 207.43 319.446 222.48 326.118 236.933C332.805 251.415 336.817 265.166 336.817 276.019C336.817 288.424 333.766 297.366 328.794 303.749C323.818 310.136 316.802 314.112 308.596 316.365C292.106 320.89 271.159 318.361 253.609 314.761C237.577 311.473 216.738 304.721 199.947 293.307C183.171 281.903 170.615 265.986 170.615 244.323Z" fill="#D9A66C" stroke="#D9A66C" stroke-width="3"/>
<path d="M150.315 280.277C126.12 254.163 107.811 253.627 101.68 256.623C71.9269 262.679 57.9494 294.785 54.6798 310.081C52.0506 322.381 28.2506 378.362 14.2186 406.589C-7.36066 448.219 4.8185 481.808 17.0795 490.796C117.619 556.554 162.985 519.181 233.69 490.796C290.254 468.089 273.334 415.735 257.803 392.396C232.055 365.904 174.51 306.391 150.315 280.277Z" fill="#D29471" stroke="#D29471" stroke-width="3"/>
<path d="M173.992 478.049L174.016 478.05L174.04 478.049C226.972 475.929 270.774 503.636 301.365 538.052C316.658 555.258 328.636 574.127 336.79 591.753C344.837 609.149 349.142 625.297 349.258 637.423H349.151H348.997H348.843H348.688H348.532H348.375H348.218H348.06H347.901H347.742H347.581H347.421H347.259H347.097H346.934H346.771H346.607H346.442H346.276H346.11H345.943H345.776H345.607H345.439H345.269H345.099H344.928H344.756H344.583H344.41H344.237H344.062H343.887H343.711H343.535H343.358H343.18H343.001H342.822H342.642H342.461H342.28H342.098H341.915H341.732H341.548H341.363H341.178H340.991H340.805H340.617H340.429H340.24H340.05H339.86H339.669H339.477H339.285H339.092H338.898H338.704H338.508H338.313H338.116H337.919H337.721H337.522H337.323H337.123H336.922H336.721H336.519H336.316H336.112H335.908H335.703H335.498H335.291H335.084H334.877H334.668H334.459H334.25H334.039H333.828H333.616H333.404H333.19H332.976H332.762H332.546H332.33H332.113H331.896H331.678H331.459H331.239H331.019H330.798H330.576H330.354H330.131H329.907H329.683H329.458H329.232H329.005H328.778H328.55H328.321H328.092H327.862H327.631H327.399H327.167H326.934H326.7H326.466H326.231H325.995H325.759H325.522H325.284H325.045H324.806H324.566H324.325H324.084H323.842H323.599H323.355H323.111H322.866H322.62H322.374H322.127H321.879H321.63H321.381H321.131H320.881H320.629H320.377H320.124H319.871H319.617H319.362H319.106H318.85H318.593H318.335H318.077H317.817H317.557H317.297H317.035H316.773H316.511H316.247H315.983H315.718H315.452H315.186H314.919H314.651H314.383H314.113H313.844H313.573H313.302H313.029H312.757H312.483H312.209H311.934H311.658H311.382H311.105H310.827H310.548H310.269H309.989H309.708H309.427H309.145H308.862H308.578H308.294H308.009H307.723H307.437H307.15H306.862H306.573H306.284H305.994H305.703H305.411H305.119H304.826H304.532H304.238H303.943H303.647H303.35H303.053H302.755H302.456H302.156H301.856H301.555H301.253H300.951H300.648H300.344H300.039H299.734H299.428H299.121H298.814H298.505H298.197H297.887H297.576H297.265H296.953H296.641H296.327H296.013H295.698H295.383H295.067H294.75H294.432H294.113H293.794H293.474H293.154H292.832H292.51H292.187H291.864H291.539H291.214H290.888H290.562H290.235H289.907H289.578H289.248H288.918H288.587H288.255H287.923H287.59H287.256H286.921H286.586H286.25H285.913H285.576H285.237H284.898H284.558H284.218H283.877H283.535H283.192H282.848H282.504H282.159H281.813H281.467H281.12H280.772H280.423H280.074H279.724H279.373H279.021H278.669H278.316H277.962H277.607H277.252H276.896H276.539H276.181H275.823H275.464H275.104H274.744H274.382H274.02H273.657H273.294H272.93H272.565H272.199H271.832H271.465H271.097H270.728H270.359H269.989H269.618H269.246H268.873H268.5H268.126H267.751H267.376H267H266.623H266.245H265.866H265.487H265.107H264.727H264.345H263.963H263.58H263.196H262.812H262.426H262.04H261.654H261.266H260.878H260.489H260.099H259.709H259.317H258.925H258.533H258.139H257.745H257.35H256.954H256.557H256.16H255.762H255.363H254.964H254.563H254.162H253.76H253.358H252.954H252.55H252.146H251.74H251.334H250.926H250.519H250.11H249.7H249.29H248.879H248.468H248.055H247.642H247.228H246.813H246.398H245.982H245.565H245.147H244.728H244.309H243.889H243.468H243.047H242.624H242.201H241.777H241.353H240.927H240.501H240.074H239.646H239.218H238.789H238.359H237.928H237.496H237.064H236.631H236.197H235.763H235.327H234.891H234.454H234.017H233.578H233.139H232.699H232.259H231.817H231.375H230.932H230.488H230.044H229.598H229.152H228.705H228.258H227.809H227.36H226.91H226.459H226.008H225.556H225.103H224.649H224.194H223.739H223.283H222.826H222.368H221.91H221.451H220.991H220.53H220.068H219.606H219.143H218.679H218.215H217.749H217.283H216.816H216.348H215.88H215.411H214.941H214.47H213.998H213.526H213.053H212.579H212.104H211.628H211.152H210.675H210.197H209.719H209.239H208.759H208.278H207.796H207.314H206.831H206.347H205.862H205.376H204.89H204.403H203.915H203.426H202.936H202.446H201.955H201.463H200.97H200.477H199.983H199.488H198.992H198.495H197.998H197.5H197.001H196.501H196.001H195.5H194.997H194.495H193.991H193.487H192.981H192.475H191.969H191.461H190.953H190.444H189.934H189.423H188.911H188.399H187.886H187.372H186.857H186.342H185.826H185.309H184.791H184.272H183.753H183.233H182.712H182.19H181.667H181.144H180.62H180.095H179.569H179.043H178.515C155.996 637.423 134.952 637.718 115.716 638.021C113.25 638.06 110.812 638.099 108.406 638.138C92.0457 638.399 77.0947 638.639 63.768 638.664C48.4799 638.694 35.3418 638.443 24.677 637.624C14.2039 636.819 6.16445 635.471 0.823999 633.329C0.913686 621.204 5.84626 605.202 14.6885 588.047C23.6066 570.745 36.4786 552.316 52.2845 535.58C83.9088 502.093 127.2 475.459 173.992 478.049Z" fill="#CF5C4A" stroke="#CF5C4A"/>
<path d="M191.609 259.871C169.948 252.224 120.831 223.599 137.443 194.744C156.122 162.299 197.056 232.412 191.609 259.871ZM191.609 259.871C194.523 239.012 218.239 174.645 251.58 202.552C285.071 230.583 200.726 263.673 191.609 259.871Z" stroke="#502B18" stroke-width="5"/>
<path d="M179.035 337.441C155.99 328.339 108.547 279.311 123.871 255.753C145.635 222.293 175.745 299.724 179.035 337.441ZM179.035 337.441C193.326 350.97 246.728 372.121 250.589 329.112C254.129 289.668 183.497 327.291 179.035 337.441ZM155.909 413.906C137.726 396.48 99.6033 356.699 118.113 334.142C141.25 305.946 169.479 389.314 155.909 413.906ZM155.909 413.906C177.704 399.483 222.685 380.785 228.246 421.373C235.197 472.108 165.907 433.852 155.909 413.906Z" stroke="#502B18" stroke-width="5"/>
<path d="M186.71 88.951C173.341 80.4379 139.199 54.1352 158.713 25.8202C174.93 2.29045 192.543 40.0107 194.097 66.6891M186.71 88.951C196.084 91.0648 219.506 93.7007 229.526 66.8899C242.051 33.3765 199.761 38.3012 194.097 66.6891M186.71 88.951C192.672 86.7045 194.733 77.6244 194.097 66.6891" stroke="#502B18" stroke-width="5"/>
<path d="M197.013 167.217C174.07 165.417 129.258 151.588 133.555 110.673C137.853 69.7579 193.969 125.173 197.013 167.217ZM197.013 167.217C201.609 147.136 223.418 90.0808 252.37 109.096C271.215 121.474 220.247 172.013 197.013 167.217Z" stroke="#502B18" stroke-width="5"/>
<path d="M122.705 483.158C107.691 467.926 70.2652 434.776 81.8173 405.407C95.8961 369.614 142.769 440.029 122.705 483.158ZM122.705 483.158C146.106 470.107 195.525 454.874 205.996 498.354C219.086 552.705 136.551 485.563 122.705 483.158Z" stroke="#502B18" stroke-width="5"/>
<path d="M1.99999 638.537C84 573.37 233.729 361.137 188.929 89.5367" stroke="#502B18" stroke-width="5"/>
</svg>
