<svg width="17355" height="10000" viewBox="0 0 17355 10000" fill="none" xmlns="http://www.w3.org/2000/svg">
<g clip-path="url(#clip0_93_24)">
<path d="M10401.2 3403.74C10020.6 3403.74 9737.27 3661.51 9737.27 4281.91C9737.27 4749.33 9924.04 5073.8 10380.7 5073.8C10767.8 5073.8 11030.6 4759.19 11030.6 4262.6C11030.6 3699.84 10795.4 3403.77 10401.2 3403.77V3403.74ZM9640.11 7784.05C9550.07 7936.52 9460.34 8098.5 9460.34 8289.68C9460.34 8671.06 9812.9 8785.84 10297.2 8785.84C10698.4 8785.84 11244.9 8747.09 11244.9 8232.52C11244.9 7926.67 10982 7907.74 10649.7 7879L9640.08 7784.05H9640.11ZM11687.5 3432.59C11811.8 3652.13 11943.4 3957.53 11943.4 4396.46C11943.4 5455.57 11341.6 6075.78 10470.3 6075.78C10248.7 6075.78 10048.1 6037.71 9923.74 5990.08L9695.4 6495.72L10373.2 6552.84C11569.9 6658.02 12275.2 6705.83 12275.2 7974.47C12275.2 9072.09 11576.8 9691.95 10373.2 9691.95C9121.27 9691.95 8644.03 9252.96 8644.03 8499.25C8644.03 8069.68 8782.39 7841.19 9024.48 7525.83C8796.15 7392.68 8720.17 7154.26 8720.17 6896.51C8720.17 6686.44 8796.15 6495.65 8920.85 6314.23C9045.31 6133.11 9183.6 5951.56 9349.63 5741.7C9010.74 5512.74 8754.75 5016.54 8754.75 4310.34C8754.75 3213.15 9280.49 2459.62 10338.6 2459.62C10636 2459.62 10816 2497.39 10975.1 2555H12323.9V3365.86L11687.5 3432.67" fill="#413000"/>
<path d="M13541.4 1698.62C13147 1698.62 12918.9 1383.46 12918.9 839.365C12918.9 295.956 13147 -0.0703125 13541.4 -0.0703125C13942.6 -0.0703125 14170.8 295.956 14170.8 839.365C14170.8 1383.45 13942.6 1698.62 13541.4 1698.62ZM12649 7432.86V6679.42L13001.8 6612.83C13098.7 6593.47 13112.5 6565.07 13112.5 6421.6V3616.32C13112.5 3511.57 13091.8 3444.49 13022.4 3416.09L12649 3234.63L12725 2462.02H14156.9V6421.67C14156.9 6574.62 14163.6 6593.54 14267.6 6612.9L14620.4 6679.49V7432.93H12648.9" fill="#413000"/>
<path d="M17355.7 7063.06C17058.1 7263.2 16622.4 7444.53 16228 7444.53C15404.9 7444.53 15093.8 6986.96 15093.8 5908.26V3408.48C15093.8 3351.35 15093.8 3313.02 15038.2 3313.02H14554.1V2463.83C15163 2368.15 15404.9 1948.22 15481 908.174H16138.2V2263.58C16138.2 2330.13 16138.2 2358.96 16193.6 2358.96H17168.8V3313H16138.2V5593.41C16138.2 6156.47 16235.2 6375.75 16608.5 6375.75C16802.4 6375.75 17002.7 6309.15 17168.8 6223.2L17355.7 7063.13" fill="#413000"/>
<path d="M7107.07 4558.99L3944.24 196.307C3762.26 -54.9694 3466.86 -54.9694 3284.65 196.307L2627.92 1102.37L3460.96 2251.56C3654.62 2161.36 3876.59 2221.84 4030.89 2434.74C4185.99 2648.97 4229.52 2957.8 4162.49 3225.86L4965.39 4333.48C5159.64 4241.14 5383.75 4300.8 5538.86 4515.15C5755.71 4814.21 5755.71 5298.81 5538.86 5597.95C5321.98 5897.18 4970.7 5897.18 4753.7 5597.95C4590.64 5372.83 4550.32 5042.34 4632.9 4765.2L3884.11 3732.22L3884.05 6450.49C3936.91 6486.59 3986.8 6534.78 4030.86 6595.29C4247.65 6894.32 4247.65 7378.83 4030.86 7678.35C3814.01 7977.37 3462.57 7977.37 3245.95 7678.35C3029.14 7378.85 3029.14 6894.34 3245.95 6595.29C3299.54 6521.5 3361.54 6465.65 3427.69 6428.22V3684.68C3361.51 3647.41 3299.58 3591.97 3245.92 3517.59C3081.69 3291.21 3042.13 2958.7 3126.36 2680.48L2305.15 1547.43L136.661 4538.83C-45.5431 4790.3 -45.5431 5197.81 136.661 5449.1L3299.3 9811.79C3481.38 10063.1 3776.68 10063.1 3959.01 9811.79L7107.03 5469.71C7289.17 5218.31 7289.17 4810.68 7107.03 4559.35" fill="#F05133"/>
</g>
<defs>
<clipPath id="clip0_93_24">
<rect width="17355" height="10000" fill="white"/>
</clipPath>
</defs>
</svg>
