<svg width="295" height="222" viewBox="0 0 295 222" fill="none" xmlns="http://www.w3.org/2000/svg">
<path d="M147.855 41.7995C132.518 82.6442 153.396 118.745 165.711 131.841C229.037 167.411 255.781 146.826 261.277 131.936C266.142 123.422 252.049 119.775 244.394 119.015C234.421 110.918 242.499 107.205 247.785 106.36C274.128 109.285 279.804 98.1467 279.349 92.2118C279.149 71.7479 262.905 75.6414 254.809 80.1461C250.4 81.3331 241.335 82.2198 240.346 76.2708C239.356 70.3218 247.396 62.0125 251.539 58.6015C256.411 50.8645 263.055 33.4615 250.654 25.7466C235.153 16.1031 232.16 32.0942 231.993 37.5395C231.911 40.2216 235.172 50.9861 228.606 63.4368C223.336 73.4314 207.938 73.0772 210.037 65.2431C213.276 53.1568 217.526 20.4225 201.265 24.4621C188.256 27.6937 189.516 42.1977 191.771 49.0457C193.98 55.6659 196.005 73.0113 185.716 71.6441C171.371 69.7381 175.085 55.8777 172.084 45.3851C163.503 29.1992 151.819 37.0487 147.855 41.7995Z" fill="#D9A66C"/>
<path d="M165.711 131.841C153.396 118.745 132.518 82.6442 147.855 41.7995C151.819 37.0487 163.503 29.1992 172.084 45.3851C175.085 55.8777 171.371 69.7381 185.716 71.6441C196.005 73.0113 193.98 55.6659 191.771 49.0457C189.516 42.1977 188.256 27.6937 201.265 24.4621C217.526 20.4225 213.276 53.1568 210.037 65.2431C207.938 73.0772 223.336 73.4314 228.606 63.4369C235.172 50.9861 231.911 40.2216 231.993 37.5395C232.16 32.0942 235.153 16.1031 250.654 25.7466C263.055 33.4615 256.411 50.8645 251.539 58.6015C247.396 62.0125 239.356 70.3218 240.346 76.2708C241.335 82.2198 250.4 81.3331 254.809 80.1461C262.905 75.6414 279.149 71.7479 279.349 92.2118C279.804 98.1467 274.128 109.285 247.785 106.36C242.499 107.205 234.421 110.918 244.394 119.015C252.049 119.775 266.142 123.422 261.277 131.936C255.781 146.826 229.037 167.411 165.711 131.841ZM165.711 131.841C175.822 126.792 191.989 116.914 205.754 104.463M230.247 69.3662C226.984 81.9801 217.2 94.1112 205.754 104.463M205.754 104.463C211.148 107.523 225.563 111.192 240.075 101.388M205.754 104.463C200.762 99.681 192.45 86.0431 199.141 69.7509" stroke="black" stroke-width="3"/>
<path d="M234.169 133.069C205.126 143.113 186.563 130.754 180.912 123.32C174.106 118.589 161.232 102.997 164.187 78.47" stroke="black" stroke-width="3"/>
<path d="M166.019 176.49C153.606 165.93 161.886 143.304 167.578 133.31L171.554 135.345C165.599 154.676 170.907 166.282 174.306 169.668C174.336 171.485 168.794 174.973 166.019 176.49Z" fill="#D29471" stroke="black" stroke-width="3"/>
<path d="M149.122 136.671C143.825 167.81 120.823 172.807 109.985 171.414C115.984 196.477 93.4351 202.603 81.4106 202.533C91.1025 167.665 58.9727 177.959 57.4767 200.057C50.7607 190.996 41.7693 195.605 38.1131 199.042C47.012 181.183 33.284 173.166 22.0814 176.909C26.6011 167.471 17.2718 159.404 13.7719 158.955C26.4416 153.153 27.9254 143.862 27.0837 139.942C50.5699 152.419 50.3921 126.666 29.5291 128.245C53.8938 117.086 39.0114 112.921 28.5246 112.234C41.8484 107.102 35.792 95.6703 31.0982 90.5956C45.9754 99.456 49.1869 88.3218 48.9331 81.6472C55.7689 95.248 66.9475 88.4234 70.3923 83.2625C75.8176 112.334 96.8088 100.813 86.361 85.5718C98.0182 87.0989 102.009 73.1746 102.548 66.0215C106.462 82.7461 117.096 79.6156 121.924 75.9597C112.423 93.0722 125.288 95.1673 132.908 94.0758C119.789 103.136 132.584 107.69 140.621 108.835C114.293 128.956 133.788 139.533 149.122 136.671Z" fill="#CF5C4A" stroke="black" stroke-width="3"/>
<path d="M110.163 172.373C103.478 153.675 79.9544 111.826 43.3267 101.206" stroke="black" stroke-width="3"/>
<path d="M81.0145 104.752C77.6273 106.442 79.1795 118.538 80.379 124.375C75.1697 123.033 61.5675 122.068 48.833 128.94M115.159 96.3964C100.662 109.416 95.6375 132.327 94.9371 142.155C81.7937 143.175 53.6973 151.108 46.4585 174.674M127.599 140.027C115.43 138.595 107.066 152.234 104.405 159.232C98.2757 160.045 85.2918 164.518 82.3914 175.902" stroke="black" stroke-width="3"/>
<path d="M140.473 189.527C131.048 192.873 116.765 179.405 110.802 172.253C112.703 190.941 129.452 198.967 137.589 200.644C141.392 198.347 141.096 192.276 140.473 189.527Z" fill="#CF5C4A" stroke="black" stroke-width="3"/>
</svg>
