<svg width="613" height="672" viewBox="0 0 613 672" fill="none" xmlns="http://www.w3.org/2000/svg">
<path d="M402.449 134.978C398.975 147.185 389.543 159.296 376.811 169.518C364.02 179.787 348.032 188.042 331.799 192.5C314.466 192.478 300.035 189.607 289.956 182.582C279.945 175.604 274 164.362 274 147C274 123.859 279.069 104.948 288.323 91.8658C297.538 78.8405 310.959 71.5 328 71.5C362.111 71.5 393.934 101.159 402.449 134.978Z" fill="#E2C1A0" stroke="#DABFA5" stroke-width="3"/>
<path d="M376 254V253.869L375.977 253.74C372.084 231.597 382.334 207.038 398.81 187.917C415.298 168.783 437.669 155.5 457.5 155.5H457.645L457.787 155.472C468.1 153.457 480.876 157.544 494.439 165.91C507.947 174.242 521.98 186.662 534.695 200.856C547.407 215.045 558.756 230.957 566.919 246.231C575.103 261.543 580 276.06 580 287.5C580 300.572 576.283 310.013 570.183 316.778C564.061 323.568 555.406 327.809 545.279 330.21C524.976 335.024 499.24 332.329 477.762 328.523C458.105 325.04 432.548 317.887 411.947 305.789C391.326 293.679 376 276.828 376 254Z" fill="#D9A66C" stroke="#D9A66C" stroke-width="3"/>
<path d="M351.5 292C321.9 264.4 299.5 263.833 292 267C255.6 273.4 238.5 307.333 234.5 323.5C231.284 336.5 202.167 395.667 185 425.5C158.6 469.5 173.5 505 188.5 514.5C311.5 584 367 544.5 453.5 514.5C522.7 490.5 502 435.167 483 410.5C451.5 382.5 381.1 319.6 351.5 292Z" fill="#D29471" stroke="#D29471" stroke-width="3"/>
<path d="M380.476 500.999L380.497 501L380.517 500.999C445.348 498.755 498.972 528.074 536.402 564.453C555.116 582.642 569.772 602.588 579.747 621.217C589.599 639.617 594.863 656.691 594.997 669.5H594.943H594.755H594.567H594.378H594.188H593.997H593.805H593.613H593.419H593.225H593.03H592.834H592.638H592.44H592.242H592.043H591.843H591.642H591.44H591.238H591.034H590.83H590.625H590.419H590.213H590.005H589.797H589.588H589.378H589.167H588.955H588.742H588.529H588.315H588.1H587.884H587.667H587.449H587.231H587.012H586.791H586.57H586.349H586.126H585.902H585.678H585.453H585.227H585H584.772H584.544H584.314H584.084H583.853H583.621H583.388H583.154H582.92H582.684H582.448H582.211H581.973H581.734H581.495H581.254H581.013H580.771H580.528H580.284H580.039H579.794H579.548H579.3H579.052H578.803H578.553H578.303H578.051H577.799H577.546H577.292H577.037H576.781H576.524H576.267H576.008H575.749H575.489H575.228H574.966H574.704H574.44H574.176H573.911H573.645H573.378H573.11H572.842H572.572H572.302H572.031H571.758H571.486H571.212H570.937H570.662H570.385H570.108H569.83H569.551H569.271H568.991H568.709H568.427H568.143H567.859H567.574H567.289H567.002H566.714H566.426H566.137H565.846H565.555H565.263H564.971H564.677H564.383H564.087H563.791H563.494H563.196H562.897H562.598H562.297H561.996H561.693H561.39H561.086H560.781H560.475H560.169H559.861H559.553H559.244H558.933H558.622H558.311H557.998H557.684H557.37H557.054H556.738H556.421H556.103H555.784H555.465H555.144H554.822H554.5H554.177H553.853H553.528H553.202H552.875H552.548H552.219H551.89H551.56H551.229H550.897H550.564H550.23H549.895H549.56H549.223H548.886H548.548H548.209H547.869H547.528H547.187H546.844H546.501H546.156H545.811H545.465H545.118H544.77H544.422H544.072H543.722H543.37H543.018H542.665H542.311H541.956H541.6H541.243H540.886H540.527H540.168H539.808H539.447H539.085H538.722H538.358H537.994H537.628H537.262H536.894H536.526H536.157H535.787H535.416H535.044H534.672H534.298H533.924H533.548H533.172H532.795H532.417H532.038H531.658H531.278H530.896H530.514H530.13H529.746H529.361H528.975H528.588H528.2H527.811H527.422H527.031H526.64H526.248H525.854H525.46H525.065H524.669H524.273H523.875H523.476H523.077H522.676H522.275H521.873H521.47H521.066H520.661H520.255H519.849H519.441H519.033H518.623H518.213H517.802H517.39H516.977H516.563H516.148H515.732H515.316H514.898H514.48H514.06H513.64H513.219H512.797H512.374H511.95H511.526H511.1H510.673H510.246H509.817H509.388H508.958H508.527H508.095H507.662H507.228H506.793H506.358H505.921H505.484H505.045H504.606H504.166H503.725H503.283H502.84H502.396H501.951H501.506H501.059H500.612H500.163H499.714H499.264H498.813H498.361H497.908H497.454H496.999H496.543H496.087H495.629H495.171H494.711H494.251H493.79H493.328H492.865H492.401H491.936H491.47H491.003H490.536H490.067H489.598H489.127H488.656H488.184H487.711H487.237H486.762H486.286H485.809H485.331H484.853H484.373H483.892H483.411H482.929H482.445H481.961H481.476H480.99H480.503H480.015H479.526H479.037H478.546H478.054H477.562H477.068H476.574H476.079H475.582H475.085H474.587H474.088H473.588H473.087H472.585H472.083H471.579H471.075H470.569H470.063H469.555H469.047H468.538H468.027H467.516H467.004H466.491H465.977H465.463H464.947H464.43H463.913H463.394H462.875H462.354H461.833H461.31H460.787H460.263H459.738H459.212H458.685H458.157H457.628H457.098H456.568H456.036H455.503H454.97H454.435H453.9H453.364H452.826H452.288H451.749H451.209H450.668H450.126H449.583H449.039H448.494H447.949H447.402H446.854H446.306H445.756H445.206H444.654H444.102H443.549H442.994H442.439H441.883H441.326H440.768H440.209H439.649H439.088H438.527H437.964H437.4H436.836H436.27H435.704H435.136H434.568H433.998H433.428H432.857H432.285H431.711H431.137H430.562H429.986H429.409H428.831H428.252H427.673H427.092H426.51H425.928H425.344H424.759H424.174H423.587H423H422.412H421.822H421.232H420.641H420.048H419.455H418.861H418.266H417.67H417.073H416.475H415.876H415.277H414.676H414.074H413.471H412.868H412.263H411.657H411.051H410.443H409.835H409.225H408.615H408.004H407.391H406.778H406.164H405.549H404.933H404.316H403.697H403.078H402.458H401.837H401.216H400.593H399.969H399.344H398.718H398.092H397.464H396.835H396.206H395.575H394.943H394.311H393.677H393.043H392.407H391.771H391.134H390.495H389.856H389.216H388.575H387.932H387.289H386.645H386C358.451 669.5 332.707 669.812 309.175 670.133C306.158 670.174 303.178 670.215 300.235 670.256C280.219 670.532 261.925 670.785 245.619 670.812C226.914 670.844 210.836 670.578 197.781 669.712C184.934 668.86 175.06 667.428 168.502 665.147C168.611 652.342 174.641 635.434 185.461 617.3C196.371 599.013 212.121 579.532 231.462 561.838C270.154 526.444 323.154 498.258 380.476 500.999Z" fill="#CF5C4A" stroke="#CF5C4A"/>
<path d="M403.242 277.264C376.742 269.182 316.653 238.928 336.976 208.431C359.827 174.14 409.906 248.242 403.242 277.264ZM403.242 277.264C406.806 255.218 435.821 187.188 476.611 216.683C517.583 246.31 414.396 281.283 403.242 277.264Z" stroke="#502B18" stroke-width="3"/>
<path d="M387.859 359.249C359.666 349.63 301.624 297.811 320.372 272.912C346.998 237.548 383.834 319.385 387.859 359.249ZM387.859 359.249C405.343 373.548 470.675 395.903 475.397 350.446C479.729 308.757 393.318 348.521 387.859 359.249ZM359.566 440.066C337.322 421.648 290.683 379.603 313.327 355.763C341.633 325.962 376.168 414.075 359.566 440.066ZM359.566 440.066C386.231 424.822 441.26 405.059 448.064 447.957C456.568 501.58 371.799 461.147 359.566 440.066Z" stroke="#502B18" stroke-width="3"/>
<path d="M170.888 668.865C272.297 604.298 459.869 398.81 398.886 93.3986" stroke="#502B18" stroke-width="3"/>
<path d="M397.248 96.617C380.893 87.6195 339.124 59.8199 362.997 29.8934C382.836 5.02448 404.385 44.8914 406.285 73.0882M397.248 96.617C408.716 98.8511 437.371 101.637 449.629 73.3004C464.952 37.8797 413.215 43.0847 406.285 73.0882M397.248 96.617C404.542 94.2427 407.064 84.6458 406.285 73.0882" stroke="#502B18" stroke-width="3"/>
<path d="M409.853 179.337C381.785 177.435 326.962 162.819 332.219 119.575C337.477 76.3315 406.13 134.9 409.853 179.337ZM409.853 179.337C415.476 158.114 442.157 97.811 477.576 117.909C500.632 130.991 438.278 184.406 409.853 179.337Z" stroke="#502B18" stroke-width="3"/>
<path d="M318.945 513.26C300.577 497.16 254.79 462.123 268.923 431.083C286.147 393.253 343.491 467.676 318.945 513.26ZM318.945 513.26C347.573 499.465 408.032 483.365 420.843 529.32C436.856 586.764 335.884 515.801 318.945 513.26Z" stroke="#502B18" stroke-width="3"/>
</svg>
