<svg width="1414" height="1553" viewBox="0 0 1414 1553" fill="none" xmlns="http://www.w3.org/2000/svg">
<path d="M930.275 315.97C922.228 344.833 900.059 373.275 870.341 397.134C840.566 421.04 803.347 440.237 765.557 450.574C725.313 450.552 691.448 443.924 667.664 427.346C643.945 410.814 630.021 384.221 630.021 343.669C630.021 290.042 641.763 245.98 663.417 215.37C685.032 184.816 716.582 167.568 756.532 167.568C836.462 167.568 910.655 237.076 930.275 315.97Z" fill="#E2C1A0" stroke="#DABFA5" stroke-width="3"/>
<path d="M865.284 590.464V590.333L865.261 590.204C856.142 538.338 880.152 481.117 918.371 436.764C956.6 392.398 1008.69 361.314 1055.22 361.314H1055.37L1055.51 361.286C1080.03 356.495 1110.04 366.239 1141.45 385.616C1172.81 404.959 1205.32 433.745 1234.73 466.579C1264.14 499.409 1290.42 536.236 1309.33 571.622C1328.26 607.045 1339.73 640.869 1339.73 667.732C1339.73 698.278 1331.03 720.549 1316.58 736.574C1302.11 752.623 1281.74 762.555 1258.14 768.151C1210.89 779.353 1151.18 773.065 1101.61 764.281C1056.16 756.225 996.955 739.672 949.163 711.606C901.35 683.527 865.284 644.139 865.284 590.464Z" fill="#D9A66C" stroke="#D9A66C" stroke-width="3"/>
<path d="M810.735 678.111C742.462 614.452 690.797 613.145 673.498 620.449C589.542 635.21 550.1 713.478 540.874 750.766C533.455 780.75 466.298 917.218 426.703 986.029C365.811 1087.51 400.178 1169.4 434.775 1191.31C718.475 1351.61 846.486 1260.5 1046 1191.31C1205.61 1135.95 1157.86 1008.33 1114.04 951.431C1041.38 886.849 879.007 741.771 810.735 678.111Z" fill="#D29471" stroke="#D29471" stroke-width="3"/>
<path d="M877.599 1159.52L877.619 1159.52L877.64 1159.52C1027.39 1154.33 1151.24 1222.06 1237.66 1306.05C1280.88 1348.05 1314.72 1394.11 1337.76 1437.14C1360.68 1479.94 1372.88 1519.7 1373.02 1549.47H1372.66H1372.23H1371.8H1371.37H1370.93H1370.49H1370.05H1369.61H1369.17H1368.72H1368.27H1367.82H1367.37H1366.92H1366.46H1366.01H1365.55H1365.08H1364.62H1364.16H1363.69H1363.22H1362.75H1362.28H1361.8H1361.32H1360.85H1360.37H1359.88H1359.4H1358.91H1358.42H1357.93H1357.44H1356.95H1356.45H1355.95H1355.45H1354.95H1354.45H1353.94H1353.43H1352.92H1352.41H1351.9H1351.38H1350.87H1350.35H1349.82H1349.3H1348.78H1348.25H1347.72H1347.19H1346.66H1346.12H1345.58H1345.04H1344.5H1343.96H1343.42H1342.87H1342.32H1341.77H1341.22H1340.66H1340.11H1339.55H1338.99H1338.42H1337.86H1337.29H1336.73H1336.16H1335.58H1335.01H1334.43H1333.85H1333.27H1332.69H1332.11H1331.52H1330.93H1330.34H1329.75H1329.16H1328.56H1327.96H1327.36H1326.76H1326.16H1325.55H1324.95H1324.34H1323.72H1323.11H1322.5H1321.88H1321.26H1320.64H1320.01H1319.39H1318.76H1318.13H1317.5H1316.87H1316.23H1315.59H1314.95H1314.31H1313.67H1313.02H1312.38H1311.73H1311.08H1310.42H1309.77H1309.11H1308.45H1307.79H1307.13H1306.46H1305.79H1305.12H1304.45H1303.78H1303.1H1302.43H1301.75H1301.07H1300.38H1299.7H1299.01H1298.32H1297.63H1296.94H1296.24H1295.54H1294.85H1294.14H1293.44H1292.74H1292.03H1291.32H1290.61H1289.89H1289.18H1288.46H1287.74H1287.02H1286.3H1285.57H1284.85H1284.12H1283.38H1282.65H1281.92H1281.18H1280.44H1279.7H1278.95H1278.21H1277.46H1276.71H1275.96H1275.21H1274.45H1273.69H1272.93H1272.17H1271.41H1270.64H1269.87H1269.1H1268.33H1267.56H1266.78H1266.01H1265.23H1264.44H1263.66H1262.87H1262.09H1261.3H1260.5H1259.71H1258.91H1258.11H1257.31H1256.51H1255.71H1254.9H1254.09H1253.28H1252.47H1251.66H1250.84H1250.02H1249.2H1248.38H1247.55H1246.73H1245.9H1245.07H1244.23H1243.4H1242.56H1241.72H1240.88H1240.04H1239.19H1238.35H1237.5H1236.65H1235.79H1234.94H1234.08H1233.22H1232.36H1231.49H1230.63H1229.76H1228.89H1228.02H1227.15H1226.27H1225.39H1224.51H1223.63H1222.74H1221.86H1220.97H1220.08H1219.19H1218.29H1217.4H1216.5H1215.6H1214.69H1213.79H1212.88H1211.97H1211.06H1210.15H1209.23H1208.32H1207.4H1206.48H1205.55H1204.63H1203.7H1202.77H1201.84H1200.9H1199.97H1199.03H1198.09H1197.15H1196.2H1195.26H1194.31H1193.36H1192.41H1191.45H1190.49H1189.54H1188.57H1187.61H1186.65H1185.68H1184.71H1183.74H1182.77H1181.79H1180.81H1179.83H1178.85H1177.87H1176.88H1175.89H1174.9H1173.91H1172.92H1171.92H1170.92H1169.92H1168.92H1167.91H1166.91H1165.9H1164.89H1163.87H1162.86H1161.84H1160.82H1159.8H1158.78H1157.75H1156.72H1155.69H1154.66H1153.63H1152.59H1151.55H1150.51H1149.47H1148.42H1147.38H1146.33H1145.28H1144.22H1143.17H1142.11H1141.05H1139.99H1138.93H1137.86H1136.79H1135.72H1134.65H1133.58H1132.5H1131.42H1130.34H1129.26H1128.17H1127.08H1126H1124.9H1123.81H1122.72H1121.62H1120.52H1119.42H1118.31H1117.21H1116.1H1114.99H1113.87H1112.76H1111.64H1110.52H1109.4H1108.28H1107.15H1106.03H1104.9H1103.77H1102.63H1101.5H1100.36H1099.22H1098.07H1096.93H1095.78H1094.63H1093.48H1092.33H1091.18H1090.02H1088.86H1087.7H1086.53H1085.37H1084.2H1083.03H1081.86H1080.68H1079.5H1078.33H1077.14H1075.96H1074.78H1073.59H1072.4H1071.21H1070.01H1068.82H1067.62H1066.42H1065.22H1064.01H1062.81H1061.6H1060.38H1059.17H1057.96H1056.74H1055.52H1054.3H1053.07H1051.85H1050.62H1049.39H1048.15H1046.92H1045.68H1044.44H1043.2H1041.96H1040.71H1039.46H1038.21H1036.96H1035.71H1034.45H1033.19H1031.93H1030.67H1029.4H1028.14H1026.87H1025.59H1024.32H1023.04H1021.77H1020.49H1019.2H1017.92H1016.63H1015.34H1014.05H1012.76H1011.46H1010.16H1008.86H1007.56H1006.26H1004.95H1003.64H1002.33H1001.02H999.701H998.383H997.064H995.742H994.417H993.091H991.763H990.432H989.099H987.764H986.426H985.087H983.745H982.401H981.055H979.707H978.356H977.004H975.649H974.292H972.932H971.571H970.207H968.841H967.473H966.103H964.73H963.356H961.979H960.6H959.218H957.835H956.449H955.061H953.671H952.279H950.884H949.487H948.088H946.687H945.284H943.878H942.47H941.06H939.648H938.233H936.817H935.398H933.977H932.553H931.128H929.7H928.27H926.838H925.403H923.966H922.528H921.086H919.643H918.198H916.75H915.3H913.847H912.393H910.936H909.477H908.016H906.553H905.087H903.619H902.149H900.677H899.203H897.726H896.247H894.766H893.282H891.796H890.308C826.772 1549.47 767.397 1550.19 713.12 1550.93C706.158 1551.02 699.28 1551.12 692.487 1551.21C646.326 1551.85 604.131 1552.43 566.521 1552.49C523.375 1552.57 486.271 1551.95 456.139 1549.95C426.213 1547.97 403.206 1544.62 387.992 1539.24C388.102 1509.47 402.094 1470.17 427.204 1428.08C452.404 1385.84 488.772 1340.86 533.427 1300.01C622.745 1218.3 745.153 1153.18 877.599 1159.52Z" fill="#CF5C4A" stroke="#CF5C4A"/>
<path d="M930.076 639.509C868.954 620.867 730.359 551.088 777.234 480.745C829.941 401.653 945.448 572.57 930.076 639.509ZM930.076 639.509C938.299 588.66 1005.22 431.748 1099.3 499.778C1193.8 568.113 955.803 648.778 930.076 639.509Z" stroke="#502B18" stroke-width="3"/>
<path d="M894.596 828.607C829.569 806.42 695.695 686.901 738.936 629.47C800.35 547.904 885.312 736.661 894.596 828.607ZM894.596 828.607C934.923 861.587 1085.61 913.149 1096.5 808.303C1106.49 712.147 907.187 803.863 894.596 828.607ZM829.339 1015.01C778.032 972.53 670.459 875.555 722.689 820.566C787.976 751.83 867.631 955.063 829.339 1015.01ZM829.339 1015.01C890.84 979.852 1017.77 934.269 1033.46 1033.21C1053.07 1156.89 857.553 1063.63 829.339 1015.01Z" stroke="#502B18" stroke-width="3"/>
<path d="M394.153 1542.74C628.053 1393.81 1060.69 919.856 920.03 215.423" stroke="#502B18" stroke-width="3"/>
<path d="M916.252 222.847C878.529 202.094 782.189 137.974 837.253 68.9488C883.011 11.5886 932.713 103.542 937.096 168.577M916.252 222.847C942.704 228 1008.8 234.425 1037.07 169.067C1072.41 87.369 953.08 99.3745 937.096 168.577M916.252 222.847C933.076 217.37 938.893 195.235 937.096 168.577" stroke="#502B18" stroke-width="3"/>
<path d="M945.326 413.641C880.586 409.253 754.137 375.541 766.263 275.799C778.389 176.058 936.737 311.146 945.326 413.641ZM945.326 413.641C958.295 364.688 1019.84 225.601 1101.53 271.956C1154.71 302.13 1010.89 425.333 945.326 413.641Z" stroke="#502B18" stroke-width="3"/>
<path d="M735.647 1183.83C693.28 1146.7 587.674 1065.89 620.271 994.291C659.998 907.037 792.261 1078.69 735.647 1183.83ZM735.647 1183.83C801.677 1152.02 941.126 1114.88 970.674 1220.88C1007.61 1353.37 774.716 1189.69 735.647 1183.83Z" stroke="#502B18" stroke-width="3"/>
</svg>
