<svg width="471" height="390" viewBox="0 0 471 390" fill="none" xmlns="http://www.w3.org/2000/svg">
<path d="M203.891 247.639C203.891 323.827 190.009 378.465 128.408 388.876C27.7638 398.42 0 279.394 0 203.206C0 127.017 55.5277 71.3276 115.393 69.5924C178.73 64.3867 203.891 171.45 203.891 247.639Z" fill="#D29471"/>
<path d="M203.891 247.639C203.891 323.827 190.009 378.465 128.408 388.876C27.7638 398.42 0 279.394 0 203.206C0 127.017 55.5277 71.3276 115.393 69.5924C178.73 64.3867 203.891 171.45 203.891 247.639Z" fill="#D29471"/>
<path d="M264.624 247.639C264.624 323.827 250.742 378.465 189.141 388.876C88.4971 398.42 70.2771 277.659 70.2771 201.471C70.2771 125.282 95.4381 72.3798 155.304 70.6446C218.64 65.4388 264.624 171.45 264.624 247.639Z" fill="#DABFA5"/>
<path d="M264.624 247.639C264.624 323.827 250.742 378.465 189.141 388.876C88.4971 398.42 70.2771 277.659 70.2771 201.471C70.2771 125.282 95.4381 72.3798 155.304 70.6446C218.64 65.4388 264.624 171.45 264.624 247.639Z" fill="#DABFA5"/>
<path d="M470.25 197.817C470.25 274.006 445.956 334.901 384.356 345.313C283.712 354.856 284.579 223.868 284.579 147.68C284.579 71.4914 275.903 33.8371 335.769 32.1019C419.928 18.22 470.25 121.629 470.25 197.817Z" fill="#D29471"/>
<path d="M98.041 76.3505C110.766 66.8067 139.86 49.9749 154.436 58.9981C162.245 53.7924 181.517 50.1484 186.376 56.3953C185.69 39.0841 187.809 20.277 196.626 8.6762C199.466 4.93956 203.001 1.95056 207.361 0L224.713 8.6762C223.889 12.0901 222.998 16.2706 222.183 20.8229C220.96 27.6606 219.908 35.3369 219.514 42.5134C224.717 39.6213 237.901 35.5724 249.007 42.5134C267.227 32.9695 306.443 18.3935 317.549 36.44L301.932 51.1896C294.991 46.8515 240.948 58.9981 237.728 76.3505C216.294 68.653 207.361 70.2772 190.009 85.0267C146.975 71.8389 110.766 73.7477 98.041 76.3505Z" fill="#665829"/>
<path d="M399.105 222.295C399.105 298.484 397.37 357.459 335.769 367.871C235.125 377.414 222.111 241.221 222.111 165.032C222.111 88.8438 229.919 47.036 289.785 45.3008C353.121 40.095 399.105 146.107 399.105 222.295Z" fill="#DABFA5"/>
<path d="M329.695 247.454C329.695 323.643 314.946 360.245 253.345 370.656C152.701 380.2 152.701 266.38 152.701 190.192C152.701 114.003 160.51 72.1953 220.375 70.4601C283.711 65.2543 329.695 171.266 329.695 247.454Z" fill="#D29471"/>
</svg>
