<svg width="433" height="832" viewBox="0 0 433 832" fill="none" xmlns="http://www.w3.org/2000/svg">
<path d="M72.2503 384.664C56.6615 416.308 19.9878 435.406 3.59957 441L3 2H116.019C136.404 7.27399 197.652 37.959 214.049 55.0396C263.813 106.881 261.415 172.805 256.618 218.054C252.781 254.253 220.644 295.123 199.059 295.965C149.895 297.883 125.212 313.146 119.017 320.537C109.923 328.728 87.8391 353.02 72.2503 384.664Z" fill="#DABEA6" stroke="#DABEA6" stroke-width="4"/>
<path d="M61.1912 691.297C0.649455 742.138 -1.03226 804.949 5.6946 830H431V329.662C422.087 321.928 390.538 305.149 335.647 299.904C280.756 294.658 245.171 313.522 234.24 323.609C162.8 381.713 192.701 452.393 216.581 480.469C245.238 521.626 240.294 555.117 234.24 566.717C225.158 607.571 121.565 666.583 61.1912 691.297Z" fill="#D29471" stroke="#D29471" stroke-width="4"/>
</svg>
