<svg width="1437" height="918" viewBox="0 0 1437 918" fill="none" xmlns="http://www.w3.org/2000/svg">
<path d="M1000.39 752.005C929.238 811.75 927.261 885.562 935.167 915H1435V327.032C1424.53 317.944 1387.45 298.226 1322.94 292.062C1258.43 285.898 1216.61 308.065 1203.76 319.92C1119.8 388.2 1154.94 471.258 1183.01 504.252C1216.69 552.617 1210.88 591.973 1203.76 605.606C1193.09 653.615 1071.34 722.962 1000.39 752.005Z" fill="#D29471" stroke="#D29471" stroke-width="4"/>
<path d="M146.911 797.837C114.515 863.648 38.3028 903.367 4.24598 915L3 2H237.867C280.231 12.9685 407.512 76.785 441.585 112.308C545.002 220.123 540.018 357.229 530.05 451.333C522.076 526.617 455.291 611.616 410.436 613.367C308.265 617.356 256.972 649.098 244.097 664.47C225.2 681.505 179.306 732.026 146.911 797.837Z" fill="#DABEA5" stroke="#DABEA6" stroke-width="4"/>
</svg>
